<svg width="25" height="25" viewBox="0 0 25 25" fill="none" xmlns="http://www.w3.org/2000/svg">
<mask id="mask0_3_547" style="mask-type:alpha" maskUnits="userSpaceOnUse" x="0" y="0" width="25" height="25">
<rect x="0.5" y="0.75" width="24" height="24" fill="#D9D9D9"/>
</mask>
<g mask="url(#mask0_3_547)">
<path d="M8.9 17.75L12.5 14.15L16.1 17.75L17.5 16.35L13.9 12.75L17.5 9.15L16.1 7.75L12.5 11.35L8.9 7.75L7.5 9.15L11.1 12.75L7.5 16.35L8.9 17.75ZM5.5 21.75C4.95 21.75 4.47917 21.5542 4.0875 21.1625C3.69583 20.7708 3.5 20.3 3.5 19.75V5.75C3.5 5.2 3.69583 4.72917 4.0875 4.3375C4.47917 3.94583 4.95 3.75 5.5 3.75H19.5C20.05 3.75 20.5208 3.94583 20.9125 4.3375C21.3042 4.72917 21.5 5.2 21.5 5.75V19.75C21.5 20.3 21.3042 20.7708 20.9125 21.1625C20.5208 21.5542 20.05 21.75 19.5 21.75H5.5Z" fill="#B094FF"/>
</g>
</svg>
