<svg width="25" height="24" viewBox="0 0 25 24" fill="none" xmlns="http://www.w3.org/2000/svg">
<path d="M13.6946 2C14.8196 2.003 15.3906 2.009 15.8836 2.023L16.0776 2.03C16.3016 2.038 16.5226 2.048 16.7896 2.06C17.8536 2.11 18.5796 2.278 19.2166 2.525C19.8766 2.779 20.4326 3.123 20.9886 3.678C21.4971 4.1779 21.8905 4.78259 22.1416 5.45C22.3886 6.087 22.5566 6.813 22.6066 7.878C22.6186 8.144 22.6286 8.365 22.6366 8.59L22.6426 8.784C22.6576 9.276 22.6636 9.847 22.6656 10.972L22.6666 11.718V13.028C22.6691 13.7574 22.6614 14.4868 22.6436 15.216L22.6376 15.41C22.6296 15.635 22.6196 15.856 22.6076 16.122C22.5576 17.187 22.3876 17.912 22.1416 18.55C21.8913 19.2178 21.4977 19.8226 20.9886 20.322C20.4886 20.8303 19.8839 21.2238 19.2166 21.475C18.5796 21.722 17.8536 21.89 16.7896 21.94C16.5523 21.9512 16.315 21.9612 16.0776 21.97L15.8836 21.976C15.3906 21.99 14.8196 21.997 13.6946 21.999L12.9486 22H11.6396C10.9099 22.0025 10.1801 21.9949 9.45059 21.977L9.25659 21.971C9.0192 21.962 8.78187 21.9517 8.54459 21.94C7.48059 21.89 6.75459 21.722 6.11659 21.475C5.44926 21.2244 4.84481 20.8308 4.34559 20.322C3.83664 19.8223 3.44282 19.2176 3.19159 18.55C2.94459 17.913 2.77659 17.187 2.72659 16.122C2.71545 15.8847 2.70545 15.6474 2.69659 15.41L2.69159 15.216C2.67316 14.4868 2.66483 13.7574 2.66659 13.028V10.972C2.6638 10.2426 2.67114 9.5132 2.68859 8.784L2.69559 8.59C2.70359 8.365 2.71359 8.144 2.72559 7.878C2.77559 6.813 2.94359 6.088 3.19059 5.45C3.44171 4.7819 3.83631 4.17702 4.34659 3.678C4.84568 3.16947 5.44974 2.77599 6.11659 2.525C6.75459 2.278 7.47959 2.11 8.54459 2.06C8.81059 2.048 9.03259 2.038 9.25659 2.03L9.45059 2.024C10.1798 2.00623 10.9092 1.99857 11.6386 2.001L13.6946 2ZM12.6666 7C11.3405 7 10.0687 7.52678 9.13106 8.46447C8.19338 9.40215 7.66659 10.6739 7.66659 12C7.66659 13.3261 8.19338 14.5979 9.13106 15.5355C10.0687 16.4732 11.3405 17 12.6666 17C13.9927 17 15.2644 16.4732 16.2021 15.5355C17.1398 14.5979 17.6666 13.3261 17.6666 12C17.6666 10.6739 17.1398 9.40215 16.2021 8.46447C15.2644 7.52678 13.9927 7 12.6666 7ZM12.6666 9C13.0606 8.99993 13.4507 9.07747 13.8147 9.22817C14.1787 9.37887 14.5094 9.5998 14.7881 9.87833C15.0667 10.1569 15.2877 10.4875 15.4385 10.8515C15.5894 11.2154 15.667 11.6055 15.6671 11.9995C15.6672 12.3935 15.5896 12.7836 15.4389 13.1476C15.2882 13.5116 15.0673 13.8423 14.7888 14.121C14.5102 14.3996 14.1796 14.6206 13.8156 14.7714C13.4517 14.9223 13.0616 14.9999 12.6676 15C11.8719 15 11.1089 14.6839 10.5463 14.1213C9.98366 13.5587 9.66759 12.7956 9.66759 12C9.66759 11.2044 9.98366 10.4413 10.5463 9.87868C11.1089 9.31607 11.8719 9 12.6676 9M17.9176 5.5C17.5861 5.5 17.2681 5.6317 17.0337 5.86612C16.7993 6.10054 16.6676 6.41848 16.6676 6.75C16.6676 7.08152 16.7993 7.39946 17.0337 7.63388C17.2681 7.8683 17.5861 8 17.9176 8C18.2491 8 18.5671 7.8683 18.8015 7.63388C19.0359 7.39946 19.1676 7.08152 19.1676 6.75C19.1676 6.41848 19.0359 6.10054 18.8015 5.86612C18.5671 5.6317 18.2491 5.5 17.9176 5.5Z" fill="#B2B1B1"/>
</svg>
