<svg width="104" height="37" viewBox="0 0 104 37" fill="none" xmlns="http://www.w3.org/2000/svg">
<path d="M35.72 33.792L38.984 35.088V36H21.752V35.064L25.088 33.984L14.288 19.776H10.136V17.352H14.696L28.904 4.752L24.92 3.576V2.64H35.984V3.576L32.096 4.752L17.048 17.928L20.624 14.112L35.72 33.792ZM12.728 4.8V33.84L16.256 35.064V36H0.464V35.064L4.064 33.84V4.8L0.464 3.576V2.64H16.352V3.576L12.728 4.8ZM52.9085 21.576L52.9325 23.184C51.5725 23.6 50.4685 24.016 49.6205 24.432C48.7725 24.848 48.1245 25.28 47.6765 25.728C47.2285 26.16 46.9165 26.64 46.7405 27.168C46.5805 27.68 46.5005 28.248 46.5005 28.872C46.5005 30.056 46.7405 30.912 47.2205 31.44C47.7005 31.968 48.3325 32.232 49.1165 32.232C49.6445 32.232 50.1085 32.112 50.5085 31.872C50.9245 31.616 51.2445 31.256 51.4685 30.792C51.6925 30.312 51.8045 29.736 51.8045 29.064V18.696C51.8045 17.576 51.5005 16.696 50.8925 16.056C50.2845 15.4 49.3325 15.072 48.0365 15.072C47.4445 15.072 46.8685 15.112 46.3085 15.192C45.7485 15.272 45.2685 15.384 44.8685 15.528L45.7805 13.992C45.6685 15.016 45.5485 15.864 45.4205 16.536C45.3085 17.192 45.1805 17.72 45.0365 18.12C44.8925 18.504 44.7245 18.816 44.5325 19.056C44.2765 19.376 43.9005 19.64 43.4045 19.848C42.9085 20.056 42.3725 20.16 41.7965 20.16C41.0285 20.16 40.4445 20.024 40.0445 19.752C39.6605 19.48 39.4685 19.104 39.4685 18.624C39.4685 17.92 39.8045 17.216 40.4765 16.512C41.1645 15.792 42.0765 15.128 43.2125 14.52C44.3485 13.912 45.6205 13.432 47.0285 13.08C48.4365 12.712 49.8765 12.528 51.3485 12.528C53.3485 12.528 54.9405 12.824 56.1245 13.416C57.3085 14.008 58.1485 14.84 58.6445 15.912C59.1565 16.984 59.4125 18.24 59.4125 19.68V31.44C59.4125 31.856 59.4685 32.192 59.5805 32.448C59.7085 32.704 59.8845 32.896 60.1085 33.024C60.3485 33.152 60.6365 33.216 60.9725 33.216C61.3245 33.216 61.6925 33.168 62.0765 33.072C62.4605 32.96 62.8445 32.792 63.2285 32.568V33.888C62.1725 34.848 61.1325 35.544 60.1085 35.976C59.0845 36.408 58.0045 36.624 56.8685 36.624C55.7005 36.624 54.7565 36.408 54.0365 35.976C53.3325 35.528 52.8125 34.872 52.4765 34.008C52.1565 33.144 51.9725 32.072 51.9245 30.792L52.2125 30.888C51.8925 32.168 51.4205 33.232 50.7965 34.08C50.1885 34.928 49.4605 35.56 48.6125 35.976C47.7645 36.392 46.8125 36.6 45.7565 36.6C43.7085 36.6 42.1005 36.08 40.9325 35.04C39.7645 34 39.1805 32.528 39.1805 30.624C39.1805 29.68 39.3565 28.832 39.7085 28.08C40.0605 27.312 40.7165 26.584 41.6765 25.896C42.6365 25.208 44.0205 24.52 45.8285 23.832C47.6365 23.128 49.9965 22.376 52.9085 21.576ZM74.0964 34.152L76.8084 35.16V36H63.7764V35.16L66.4884 34.152V7.32C66.2644 7.08 65.9764 6.816 65.6244 6.528C65.2724 6.24 64.8484 5.92 64.3524 5.568C63.8724 5.216 63.3204 4.832 62.6964 4.416V3.576L73.6884 0.912H74.2644L74.0964 5.904V34.152ZM91.1705 34.68C92.0985 34.68 92.8665 34.368 93.4745 33.744C94.0825 33.12 94.5385 32.128 94.8425 30.768C95.1465 29.392 95.2985 27.6 95.2985 25.392C95.2985 22.976 95.1545 20.96 94.8665 19.344C94.5785 17.728 94.1145 16.512 93.4745 15.696C92.8505 14.864 92.0265 14.448 91.0025 14.448C90.0905 14.448 89.3225 14.76 88.6985 15.384C88.0905 16.008 87.6345 17 87.3305 18.36C87.0265 19.72 86.8745 21.512 86.8745 23.736C86.8745 26.136 87.0185 28.152 87.3065 29.784C87.5945 31.4 88.0585 32.624 88.6985 33.456C89.3385 34.272 90.1625 34.68 91.1705 34.68ZM90.8585 36.624C88.4585 36.624 86.3625 36.128 84.5705 35.136C82.7785 34.128 81.3865 32.736 80.3945 30.96C79.4025 29.168 78.9065 27.096 78.9065 24.744C78.9065 22.344 79.4425 20.224 80.5145 18.384C81.5865 16.544 83.0585 15.104 84.9305 14.064C86.8025 13.008 88.9305 12.48 91.3145 12.48C93.7465 12.48 95.8585 12.984 97.6505 13.992C99.4425 14.984 100.827 16.376 101.802 18.168C102.779 19.944 103.267 22.008 103.267 24.36C103.267 26.776 102.723 28.912 101.635 30.768C100.563 32.608 99.0905 34.048 97.2185 35.088C95.3625 36.112 93.2425 36.624 90.8585 36.624ZM90.0185 10.056L92.9705 2.184H99.2825V2.688L91.4585 10.056H90.0185Z" fill="#232222"/>
</svg>
