<svg width="28" height="28" viewBox="0 0 28 28" fill="none" xmlns="http://www.w3.org/2000/svg">
<path d="M14 26C20.6274 26 26 20.6274 26 14C26 7.37258 20.6274 2 14 2C7.37258 2 2 7.37258 2 14C2 20.6274 7.37258 26 14 26Z" stroke="#B4B4B4" stroke-width="3"/>
<path d="M18.1437 14.4738C17.9619 15.2258 17.1028 15.7573 15.3847 16.8202C13.7236 17.8477 12.8932 18.3615 12.2239 18.155C11.9472 18.0696 11.6952 17.9074 11.4918 17.684C11 17.1438 11 16.0958 11 14C11 11.9042 11 10.8562 11.4918 10.3159C11.6952 10.0926 11.9472 9.93041 12.2239 9.84503C12.8932 9.63853 13.7236 10.1523 15.3847 11.1798C17.1028 12.2427 17.9619 12.7742 18.1437 13.5262C18.2187 13.8367 18.2187 14.1633 18.1437 14.4738Z" stroke="#B4B4B4" stroke-width="3" stroke-linejoin="round"/>
</svg>
