<svg width="128" height="128" viewBox="0 0 128 128" fill="none" xmlns="http://www.w3.org/2000/svg">
<path d="M127.69 72.04C127.43 71.34 126.8 70.83 126.04 70.74C61.72 62.32 39.3 19.32 39.08 18.88C38.9431 18.6073 38.747 18.3687 38.506 18.1815C38.2651 17.9943 37.9853 17.8634 37.6872 17.7982C37.3891 17.733 37.0802 17.7353 36.7831 17.8048C36.486 17.8743 36.2082 18.0093 35.97 18.2L0.950019 45.99C0.190019 46.59 -0.039981 47.64 0.380019 48.5C28.58 106.07 85.28 120.62 85.85 120.77C86.2193 120.86 86.6063 120.846 86.9681 120.729C87.3299 120.613 87.6525 120.398 87.9 120.11L127.33 74.11C127.83 73.54 127.96 72.75 127.69 72.04ZM53.52 103.03C52.48 103.03 51.24 102.53 50.78 101.58C50.32 100.64 50.52 99.51 51.17 98.71C51.64 98.13 52.29 97.79 52.98 97.66C57.14 96.88 58.7 103.03 53.52 103.03ZM61.21 97C60.17 97 58.93 96.5 58.47 95.56C58 94.62 58.21 93.49 58.86 92.69C59.33 92.11 59.98 91.77 60.67 91.64C64.85 90.85 66.39 97 61.21 97ZM68.26 90.53C67.21 90.53 65.97 90.03 65.51 89.08C65.05 88.14 65.26 87.01 65.91 86.21C66.39 85.63 67.03 85.29 67.72 85.16C71.89 84.37 73.44 90.53 68.26 90.53ZM74.88 83.7C73.84 83.7 72.61 83.2 72.14 82.25C71.67 81.31 71.88 80.18 72.53 79.38C73 78.8 73.64 78.46 74.33 78.33C78.51 77.55 80.06 83.7 74.88 83.7ZM81.97 76.22C80.94 76.4 79.63 76.12 79.01 75.26C78.4 74.41 78.41 73.26 78.91 72.36C79.28 71.71 79.86 71.27 80.52 71.02C84.5 69.54 87.07 75.34 81.97 76.22ZM88.05 69.26C87.02 69.42 85.72 69.11 85.11 68.25C84.51 67.39 84.54 66.24 85.06 65.35C85.44 64.7 86.02 64.27 86.69 64.04C90.69 62.62 93.17 68.47 88.05 69.26Z" fill="#40C0E7"/>
<path d="M47.57 69.11C47.06 69.54 47.11 70.22 47.68 70.63C47.68 70.63 49.54 72.18 52.68 74.32C55.85 76.48 58.84 77.96 58.84 77.96C59.47 78.34 60.41 78.3 60.92 77.86L63.42 75.77C63.95 75.33 63.86 74.66 63.24 74.28C63.24 74.28 59.65 72.28 56.98 70.54C53.79 68.45 52.01 67.04 52.01 67.04C51.42 66.63 50.53 66.64 50.01 67.07L47.57 69.11ZM40.82 75.21C40.32 75.63 40.33 76.35 40.85 76.8C40.85 76.8 43.65 79.36 45.76 81.05C47.88 82.76 50.92 85.19 50.92 85.19C51.48 85.64 52.36 85.65 52.87 85.23L55.92 82.67C56.43 82.24 56.37 81.56 55.78 81.16C55.78 81.16 52.56 79.04 50.24 77.4C47.91 75.75 44.96 73.36 44.96 73.36C44.41 72.93 43.56 72.93 43.05 73.35L40.82 75.21ZM35.58 43.72C35.09 44.11 35.03 44.82 35.45 45.31L36.34 46.31C36.78 46.79 37.54 46.86 38.04 46.47L39.83 45.06C40.33 44.66 40.38 43.96 39.93 43.49L39 42.51C38.56 42.04 37.8 41.97 37.29 42.37L35.58 43.72ZM44.27 52.82C43.76 53.22 43.74 53.91 44.23 54.36L46.15 56.12C46.65 56.57 47.47 56.61 47.99 56.22L50.06 54.62C50.57 54.22 50.58 53.54 50.07 53.1L48.07 51.36C47.57 50.91 46.75 50.88 46.24 51.27L44.27 52.82ZM55.71 59.08C56.23 58.68 56.21 58.02 55.66 57.61L53.76 56.14C53.22 55.72 52.36 55.7 51.84 56.1L49.73 57.72C49.22 58.12 49.22 58.79 49.74 59.23L51.58 60.72C52.11 61.15 52.97 61.17 53.49 60.77L55.71 59.08ZM61.94 63.34C62.47 62.94 62.42 62.3 61.83 61.92L59.65 60.47C59.08 60.08 58.18 60.09 57.66 60.49L55.39 62.21C54.87 62.6 54.9 63.26 55.45 63.67L57.54 65.15C58.11 65.55 59.02 65.55 59.54 65.15L61.94 63.34ZM35.85 40.76C36.35 40.37 36.42 39.65 36 39.16L34.44 37.34C34.04 36.85 33.32 36.78 32.83 37.18L31.3 38.43C30.82 38.83 30.73 39.56 31.12 40.06L32.57 41.88C32.97 42.38 33.7 42.46 34.2 42.07L35.85 40.76ZM66.15 64.55C65.54 64.2 64.6 64.25 64.06 64.65L61.6 66.51C61.07 66.91 61.13 67.54 61.72 67.91L66.29 70.59C66.91 70.94 67.84 70.88 68.35 70.45L70.92 68.32C71.44 67.89 71.33 67.27 70.69 66.95L66.15 64.55ZM44.6 49.77C45.1 49.38 45.13 48.68 44.66 48.22L43.12 46.73C42.66 46.27 41.86 46.22 41.36 46.61L39.52 48.05C39.01 48.44 38.98 49.15 39.42 49.62L40.9 51.13C41.37 51.6 42.16 51.66 42.67 51.26L44.6 49.77ZM43.93 67.25C44.1 67.26 44.25 67.24 44.4 67.17C45.14 66.83 46.87 65.22 47.09 65.05C47.92 64.4 47.77 63.89 47.17 63.44C46.73 63.11 46.33 62.75 45.91 62.4C45.09 61.72 41.19 59.17 35.64 53.13C30.83 47.9 27.72 43.28 27.51 43C27.36 42.78 27.22 42.53 26.99 42.38C26.56 42.1 26.07 42.72 25.78 42.96L24.72 43.84L24.06 44.38C23.66 44.72 23.75 45.16 24.01 45.56C24.26 45.94 24.52 46.32 24.77 46.7C25.35 47.56 25.94 48.42 26.55 49.26C27.31 50.31 28.1 51.34 28.91 52.37C29.86 53.57 30.85 54.76 31.87 55.92C34.3372 58.7324 36.9543 61.4096 39.71 63.94C40.49 64.66 41.29 65.37 42.1 66.06C42.47 66.38 42.87 66.81 43.29 67.06C43.49 67.15 43.71 67.23 43.93 67.25ZM40.78 70.16C40.78 69.81 40.37 69.52 40.13 69.3C39.81 69.02 39.49 68.73 39.18 68.44C38.57 67.87 37.95 67.3 37.35 66.73C35.87 65.32 34.44 63.88 33.05 62.42C31.8 61.1 30.59 59.75 29.41 58.39C28.38 57.2 27.37 55.97 26.4 54.74C25.58 53.69 24.78 52.63 24 51.55C23.38 50.69 22.76 49.81 22.17 48.93C21.94 48.58 21.7 48.22 21.47 47.86C21.37 47.7 21.27 47.55 21.17 47.39C21.05 47.2 20.86 46.91 20.62 46.9C20.26 46.89 20.1 47.15 19.84 47.37C19.43 47.7 19.03 48.03 18.62 48.37C18.42 48.53 18.22 48.7 18.02 48.87C17.31 49.45 17.74 49.92 18.15 50.57C18.38 50.93 18.61 51.29 18.83 51.64C19.39 52.51 19.96 53.36 20.55 54.21C21.27 55.25 22.02 56.28 22.78 57.31C23.69 58.51 24.61 59.69 25.56 60.87C26.64 62.21 27.77 63.54 28.92 64.85C30.21 66.31 31.54 67.76 32.9 69.18C33.57 69.89 34.26 70.58 34.95 71.28C35.25 71.58 35.54 71.88 35.84 72.18C36.66 73.01 37.3 73.26 38.24 72.55C38.73 72.19 39.19 71.8 39.66 71.41C40.02 71.08 40.79 70.69 40.78 70.16Z" fill="#2F2F2F"/>
</svg>
