<svg width="20" height="22" viewBox="0 0 20 22" fill="none" xmlns="http://www.w3.org/2000/svg">
<path d="M14.5 5.49999C14.5 7.98527 12.4853 9.99999 10 9.99999C7.51472 9.99999 5.5 7.98527 5.5 5.49999C5.5 3.01471 7.51472 0.999988 10 0.999988C12.4853 0.999988 14.5 3.01471 14.5 5.49999Z" stroke="#CECECE" stroke-width="1.5"/>
<path d="M4.57757 14.4816C3.1628 15.324 -0.546637 17.0441 1.71266 19.1966C2.81631 20.248 4.04549 21 5.59087 21H14.4091C15.9545 21 17.1837 20.248 18.2873 19.1966C20.5466 17.0441 16.8372 15.324 15.4224 14.4816C12.1048 12.5061 7.89519 12.5061 4.57757 14.4816Z" stroke="#CECECE" stroke-width="1.5" stroke-linecap="round" stroke-linejoin="round"/>
</svg>
