<svg width="101" height="101" viewBox="0 0 101 101" fill="none" xmlns="http://www.w3.org/2000/svg">
<g clip-path="url(#clip0_44_1568)">
<path fill-rule="evenodd" clip-rule="evenodd" d="M0.5 50.5C0.5 37.2392 5.76784 24.5215 15.1447 15.1447C24.5215 5.76784 37.2392 0.5 50.5 0.5C63.7608 0.5 76.4785 5.76784 85.8553 15.1447C95.2322 24.5215 100.5 37.2392 100.5 50.5C100.5 63.7608 95.2322 76.4785 85.8553 85.8553C76.4785 95.2322 63.7608 100.5 50.5 100.5C37.2392 100.5 24.5215 95.2322 15.1447 85.8553C5.76784 76.4785 0.5 63.7608 0.5 50.5ZM47.6467 71.9L76.4333 35.9133L71.2333 31.7533L46.6867 62.4267L29.3 47.94L25.0333 53.06L47.6467 71.9Z" fill="#4BB39B"/>
</g>
<defs>
<clipPath id="clip0_44_1568">
<rect width="100" height="100" fill="white" transform="translate(0.5 0.5)"/>
</clipPath>
</defs>
</svg>
